<mxfile host="app.diagrams.net" modified="2023-05-20T11:08:45.801Z" agent="Mozilla/5.0 (X11; Linux x86_64) AppleWebKit/537.36 (KHTML, like Gecko) Chrome/104.0.5112.114 YaBrowser/22.9.1.1110 (beta) Yowser/2.5 Safari/537.36" etag="SNXw3Ij60JW09jgHz5Lg" version="21.2.9" type="device">
  <diagram id="gmb-iSFQ5wAesivbyCy_" name="Page-1">
    <mxGraphModel dx="1912" dy="1040" grid="1" gridSize="10" guides="1" tooltips="1" connect="1" arrows="1" fold="1" page="1" pageScale="1" pageWidth="827" pageHeight="1169" math="0" shadow="0">
      <root>
        <mxCell id="0" />
        <mxCell id="1" parent="0" />
        <mxCell id="2LKgYTM5fiwgCWSIZSVV-1" value="" style="edgeStyle=none;rounded=0;orthogonalLoop=1;jettySize=auto;exitX=0.5;exitY=0.5;exitDx=0;exitDy=0;exitPerimeter=0;entryX=0;entryY=0.5;entryDx=0;entryDy=0;endArrow=none;endFill=0;fontFamily=Helvetica;html=1;" edge="1" parent="1" source="2LKgYTM5fiwgCWSIZSVV-4" target="2LKgYTM5fiwgCWSIZSVV-12">
          <mxGeometry relative="1" as="geometry">
            <mxPoint x="190.00000000000114" y="234" as="targetPoint" />
          </mxGeometry>
        </mxCell>
        <mxCell id="2LKgYTM5fiwgCWSIZSVV-2" style="edgeStyle=none;rounded=0;orthogonalLoop=1;jettySize=auto;exitX=0.5;exitY=0.5;exitDx=0;exitDy=0;exitPerimeter=0;entryX=0;entryY=0.5;entryDx=0;entryDy=0;endArrow=none;endFill=0;fontFamily=Helvetica;html=1;" edge="1" parent="1" source="2LKgYTM5fiwgCWSIZSVV-4" target="2LKgYTM5fiwgCWSIZSVV-8">
          <mxGeometry relative="1" as="geometry" />
        </mxCell>
        <mxCell id="2LKgYTM5fiwgCWSIZSVV-4" value="Разработчик" style="shape=umlActor;verticalLabelPosition=bottom;labelBackgroundColor=#ffffff;verticalAlign=top;fontFamily=Helvetica;html=1;" vertex="1" parent="1">
          <mxGeometry x="40" y="255" width="30" height="60" as="geometry" />
        </mxCell>
        <mxCell id="2LKgYTM5fiwgCWSIZSVV-8" value="" style="ellipse;whiteSpace=wrap;fontFamily=Helvetica;html=1;" vertex="1" parent="1">
          <mxGeometry x="195" y="380" width="140" height="70" as="geometry" />
        </mxCell>
        <mxCell id="2LKgYTM5fiwgCWSIZSVV-12" value="" style="ellipse;whiteSpace=wrap;fontFamily=Helvetica;html=1;" vertex="1" parent="1">
          <mxGeometry x="205" y="129.5" width="140" height="70" as="geometry" />
        </mxCell>
        <mxCell id="2LKgYTM5fiwgCWSIZSVV-20" value="&lt;span style=&quot;&quot;&gt;Получение EEPROM-&lt;/span&gt;" style="text;strokeColor=none;fillColor=none;align=center;verticalAlign=middle;whiteSpace=wrap;rounded=0;fontFamily=Helvetica;html=1;" vertex="1" parent="1">
          <mxGeometry x="210" y="147" width="130" height="20" as="geometry" />
        </mxCell>
        <mxCell id="2LKgYTM5fiwgCWSIZSVV-21" value="&lt;span style=&quot;&quot;&gt;переменной&lt;/span&gt;" style="text;strokeColor=none;fillColor=none;align=center;verticalAlign=middle;whiteSpace=wrap;rounded=0;fontFamily=Helvetica;html=1;" vertex="1" parent="1">
          <mxGeometry x="255" y="164.5" width="40" height="20" as="geometry" />
        </mxCell>
        <mxCell id="2LKgYTM5fiwgCWSIZSVV-22" value="Обновление значения" style="text;fontFamily=Helvetica;html=1;" vertex="1" parent="1">
          <mxGeometry x="200" y="390" width="130" height="30" as="geometry" />
        </mxCell>
        <mxCell id="2LKgYTM5fiwgCWSIZSVV-23" value="EEPROM-переменной" style="text;fontFamily=Helvetica;html=1;" vertex="1" parent="1">
          <mxGeometry x="200" y="405" width="130" height="30" as="geometry" />
        </mxCell>
        <mxCell id="2LKgYTM5fiwgCWSIZSVV-34" value="Планирование отложенного обновления&lt;br&gt;значения переменной" style="ellipse;whiteSpace=wrap;fontFamily=Helvetica;html=1;" vertex="1" parent="1">
          <mxGeometry x="410" y="450.29" width="145" height="80" as="geometry" />
        </mxCell>
        <mxCell id="2LKgYTM5fiwgCWSIZSVV-37" value="Моментальное обновление значения переменной" style="ellipse;whiteSpace=wrap;fontFamily=Helvetica;html=1;" vertex="1" parent="1">
          <mxGeometry x="410" y="300" width="145" height="80" as="geometry" />
        </mxCell>
        <mxCell id="2LKgYTM5fiwgCWSIZSVV-42" style="edgeStyle=none;rounded=0;orthogonalLoop=1;jettySize=auto;entryX=0;entryY=0.5;entryDx=0;entryDy=0;endArrow=open;endFill=0;startArrow=none;startFill=0;dashed=1;fontFamily=Helvetica;html=1;exitX=1;exitY=0.5;exitDx=0;exitDy=0;" edge="1" parent="1">
          <mxGeometry relative="1" as="geometry">
            <mxPoint x="335" y="415" as="sourcePoint" />
            <mxPoint x="410" y="340" as="targetPoint" />
          </mxGeometry>
        </mxCell>
        <mxCell id="2LKgYTM5fiwgCWSIZSVV-43" value="&amp;lt;&amp;lt;включает&amp;gt;&amp;gt;" style="text;resizable=0;points=[];align=center;verticalAlign=middle;labelBackgroundColor=#ffffff;fontFamily=Helvetica;html=1;" vertex="1" connectable="0" parent="2LKgYTM5fiwgCWSIZSVV-42">
          <mxGeometry x="0.3281" y="-2" relative="1" as="geometry">
            <mxPoint x="-8" y="12" as="offset" />
          </mxGeometry>
        </mxCell>
        <mxCell id="2LKgYTM5fiwgCWSIZSVV-44" style="edgeStyle=none;rounded=0;orthogonalLoop=1;jettySize=auto;entryX=0;entryY=0.5;entryDx=0;entryDy=0;endArrow=open;endFill=0;startArrow=none;startFill=0;dashed=1;fontFamily=Helvetica;html=1;exitX=1;exitY=0.5;exitDx=0;exitDy=0;" edge="1" parent="1" source="2LKgYTM5fiwgCWSIZSVV-8" target="2LKgYTM5fiwgCWSIZSVV-34">
          <mxGeometry relative="1" as="geometry">
            <mxPoint x="345" y="425" as="sourcePoint" />
            <mxPoint x="420" y="350" as="targetPoint" />
          </mxGeometry>
        </mxCell>
        <mxCell id="2LKgYTM5fiwgCWSIZSVV-45" value="&amp;lt;&amp;lt;включает&amp;gt;&amp;gt;" style="text;resizable=0;points=[];align=center;verticalAlign=middle;labelBackgroundColor=#ffffff;fontFamily=Helvetica;html=1;" vertex="1" connectable="0" parent="2LKgYTM5fiwgCWSIZSVV-44">
          <mxGeometry x="0.3281" y="-2" relative="1" as="geometry">
            <mxPoint x="-3" y="-13" as="offset" />
          </mxGeometry>
        </mxCell>
        <mxCell id="2LKgYTM5fiwgCWSIZSVV-46" value="" style="ellipse;whiteSpace=wrap;fontFamily=Helvetica;html=1;" vertex="1" parent="1">
          <mxGeometry x="411" y="51.34" width="140" height="70" as="geometry" />
        </mxCell>
        <mxCell id="2LKgYTM5fiwgCWSIZSVV-47" value="" style="ellipse;whiteSpace=wrap;fontFamily=Helvetica;html=1;" vertex="1" parent="1">
          <mxGeometry x="412" y="193" width="140" height="70" as="geometry" />
        </mxCell>
        <mxCell id="2LKgYTM5fiwgCWSIZSVV-48" value="&lt;span style=&quot;&quot;&gt;Создание и добавление&amp;nbsp;&lt;/span&gt;" style="text;strokeColor=none;fillColor=none;align=center;verticalAlign=middle;whiteSpace=wrap;rounded=0;fontFamily=Helvetica;html=1;" vertex="1" parent="1">
          <mxGeometry x="412" y="66.34" width="140" height="20" as="geometry" />
        </mxCell>
        <mxCell id="2LKgYTM5fiwgCWSIZSVV-49" value="&lt;span style=&quot;&quot;&gt;EEPROM-&lt;/span&gt;переменной" style="text;strokeColor=none;fillColor=none;align=center;verticalAlign=middle;whiteSpace=wrap;rounded=0;fontFamily=Helvetica;html=1;" vertex="1" parent="1">
          <mxGeometry x="416" y="86.34" width="130" height="20" as="geometry" />
        </mxCell>
        <mxCell id="2LKgYTM5fiwgCWSIZSVV-50" value="&lt;span style=&quot;&quot;&gt;Получение EEPROM-&lt;/span&gt;" style="text;strokeColor=none;fillColor=none;align=center;verticalAlign=middle;whiteSpace=wrap;rounded=0;fontFamily=Helvetica;html=1;" vertex="1" parent="1">
          <mxGeometry x="417" y="210.5" width="130" height="20" as="geometry" />
        </mxCell>
        <mxCell id="2LKgYTM5fiwgCWSIZSVV-51" value="&lt;span style=&quot;&quot;&gt;переменной&lt;/span&gt;" style="text;strokeColor=none;fillColor=none;align=center;verticalAlign=middle;whiteSpace=wrap;rounded=0;fontFamily=Helvetica;html=1;" vertex="1" parent="1">
          <mxGeometry x="462" y="228" width="40" height="20" as="geometry" />
        </mxCell>
        <mxCell id="2LKgYTM5fiwgCWSIZSVV-54" style="edgeStyle=none;rounded=0;orthogonalLoop=1;jettySize=auto;entryX=0;entryY=0.5;entryDx=0;entryDy=0;endArrow=open;endFill=0;startArrow=none;startFill=0;dashed=1;fontFamily=Helvetica;html=1;exitX=1;exitY=0.5;exitDx=0;exitDy=0;" edge="1" parent="1" source="2LKgYTM5fiwgCWSIZSVV-12" target="2LKgYTM5fiwgCWSIZSVV-46">
          <mxGeometry relative="1" as="geometry">
            <mxPoint x="345" y="425" as="sourcePoint" />
            <mxPoint x="420" y="350" as="targetPoint" />
          </mxGeometry>
        </mxCell>
        <mxCell id="2LKgYTM5fiwgCWSIZSVV-55" value="&amp;lt;&amp;lt;включает&amp;gt;&amp;gt;" style="text;resizable=0;points=[];align=center;verticalAlign=middle;labelBackgroundColor=#ffffff;fontFamily=Helvetica;html=1;" vertex="1" connectable="0" parent="2LKgYTM5fiwgCWSIZSVV-54">
          <mxGeometry x="0.3281" y="-2" relative="1" as="geometry">
            <mxPoint x="-8" y="12" as="offset" />
          </mxGeometry>
        </mxCell>
        <mxCell id="2LKgYTM5fiwgCWSIZSVV-56" style="edgeStyle=none;rounded=0;orthogonalLoop=1;jettySize=auto;entryX=0;entryY=0.5;entryDx=0;entryDy=0;endArrow=open;endFill=0;startArrow=none;startFill=0;dashed=1;fontFamily=Helvetica;html=1;exitX=1;exitY=0.5;exitDx=0;exitDy=0;" edge="1" parent="1" source="2LKgYTM5fiwgCWSIZSVV-12" target="2LKgYTM5fiwgCWSIZSVV-47">
          <mxGeometry relative="1" as="geometry">
            <mxPoint x="355" y="175" as="sourcePoint" />
            <mxPoint x="422" y="85" as="targetPoint" />
          </mxGeometry>
        </mxCell>
        <mxCell id="2LKgYTM5fiwgCWSIZSVV-57" value="&amp;lt;&amp;lt;включает&amp;gt;&amp;gt;" style="text;resizable=0;points=[];align=center;verticalAlign=middle;labelBackgroundColor=#ffffff;fontFamily=Helvetica;html=1;" vertex="1" connectable="0" parent="2LKgYTM5fiwgCWSIZSVV-56">
          <mxGeometry x="0.3281" y="-2" relative="1" as="geometry">
            <mxPoint x="-8" y="-9" as="offset" />
          </mxGeometry>
        </mxCell>
      </root>
    </mxGraphModel>
  </diagram>
</mxfile>
